<svg width="258" height="258" viewBox="0 0 258 258" fill="none" xmlns="http://www.w3.org/2000/svg">
<path d="M128.509 0C199.482 0.000131945 257.018 57.5356 257.018 128.509C257.017 199.482 199.482 257.017 128.509 257.018C57.5356 257.018 0.00013198 199.482 0 128.509C0 57.5355 57.5355 0 128.509 0Z" fill="black"/>
<path d="M100.647 50.099C103.906 49.5027 107.033 51.6617 107.629 54.9213L113.25 85.6498L179.512 112.567L186.31 111.279C189.565 110.662 192.705 112.8 193.322 116.056L193.757 118.353L223.656 130.499C226.726 131.747 228.204 135.246 226.957 138.316L225.451 142.022C224.204 145.092 220.705 146.57 217.635 145.323L177.858 129.164L123.108 139.542L134.082 199.522C134.678 202.781 132.519 205.907 129.26 206.503L125.325 207.223C122.066 207.819 118.94 205.66 118.344 202.401L107.389 142.522L44.8604 154.374C41.6049 154.991 38.4659 152.853 37.8487 149.597L37.1035 145.666C36.4867 142.411 38.6254 139.272 41.8809 138.655L104.51 126.783L99.0918 97.1683L81.4424 89.9994C78.3723 88.7523 76.8945 85.2521 78.1416 82.182L79.6465 78.476C80.8937 75.406 84.3939 73.9281 87.4639 75.1752L95.6778 78.5121L91.8897 57.8011C91.2934 54.5416 93.4525 51.4151 96.7119 50.8187L100.647 50.099ZM120.23 123.803L150.524 118.061L116.663 104.306L120.23 123.803Z" fill="#FF0000"/>
</svg>
