<svg width="258" height="258" viewBox="0 0 258 258" fill="none" xmlns="http://www.w3.org/2000/svg">
<path d="M128.509 0C199.482 0.000131945 257.018 57.5356 257.018 128.509C257.017 199.482 199.482 257.017 128.509 257.018C57.5356 257.018 0.00013198 199.482 0 128.509C0 57.5355 57.5355 0 128.509 0Z" fill="black"/>
<path d="M178.498 49.8817C180.803 46.0947 185.741 44.893 189.528 47.1971C193.315 49.5015 194.517 54.4393 192.212 58.2264L185.038 70.0174L198.389 120.897C199.514 125.185 196.95 129.573 192.663 130.698C188.375 131.823 183.986 129.259 182.861 124.972L173.441 89.076L101.452 207.39C99.1472 211.177 94.2084 212.379 90.4213 210.075C86.6347 207.771 85.4328 202.833 87.7367 199.046L121.992 142.747L110.881 100.407L70.0893 121.582C66.1547 123.624 61.3095 122.09 59.267 118.156C57.2247 114.221 58.7582 109.375 62.6928 107.333L111.687 81.9032C113.134 81.152 114.704 80.8848 116.213 81.0428C119.773 81.0437 123.023 83.4298 123.969 87.034L133.587 123.69L178.498 49.8817Z" fill="#FF0000"/>
</svg>
