<svg width="1625" height="1625" viewBox="0 0 1625 1625" fill="none" xmlns="http://www.w3.org/2000/svg">
<path d="M812.5 0C1261.23 0 1625 363.769 1625 812.5C1625 1261.23 1261.23 1625 812.5 1625C363.769 1625 0 1261.23 0 812.5C0 363.769 363.769 0 812.5 0Z" fill="black"/>
<path d="M1128.56 315.378C1143.13 291.433 1174.35 283.833 1198.3 298.402C1222.24 312.972 1229.84 344.194 1215.27 368.139L1169.91 442.689L1254.33 764.374C1261.44 791.485 1245.23 819.229 1218.12 826.344C1191.01 833.458 1163.26 817.247 1156.15 790.137L1096.59 563.185L641.433 1311.23C626.863 1335.18 595.642 1342.78 571.697 1328.21C547.753 1313.64 540.152 1282.42 554.722 1258.47L771.302 902.526L701.056 634.835L443.142 768.708C418.265 781.621 387.63 771.922 374.717 747.045C361.804 722.168 371.504 691.533 396.381 678.62L706.143 517.835C715.278 513.093 725.19 511.404 734.715 512.392C757.238 512.377 777.819 527.469 783.804 550.273L844.619 782.03L1128.56 315.378Z" fill="#FF0000"/>
</svg>
