<svg width="1323" height="912" viewBox="0 0 1323 912" fill="none" xmlns="http://www.w3.org/2000/svg">
<rect x="58" y="801.803" width="864.174" height="62.1966" rx="14" fill="#4B4B4B"/>
<rect x="1288.9" y="168.021" width="753.184" height="37.0147" rx="14" transform="rotate(119.134 1288.9 168.021)" fill="#4B4B4B"/>
<circle cx="458.092" cy="832.901" r="7.17654" fill="black"/>
<circle cx="437.16" cy="832.901" r="7.17654" fill="black"/>
<circle cx="416.229" cy="832.901" r="7.17654" fill="black"/>
<circle cx="395.297" cy="832.901" r="7.17654" fill="black"/>
<circle cx="374.366" cy="832.901" r="7.17654" fill="black"/>
<circle cx="875.527" cy="832.901" r="14.3531" fill="black"/>
<rect x="770.271" y="823.93" width="72.3634" height="17.9413" fill="black"/>
<rect x="697.908" y="823.93" width="48.4416" height="17.9413" fill="black"/>
<g filter="url(#filter0_d_14_31)">
<ellipse cx="1082.27" cy="464.66" rx="3.0236" ry="267.696" transform="rotate(29.0639 1082.27 464.66)" fill="#34B1FF" fill-opacity="0.2" shape-rendering="crispEdges"/>
</g>
<rect x="529.717" y="554.582" width="60" height="12" rx="4" transform="rotate(7.60329 529.717 554.582)" fill="black"/>
<rect x="590.141" y="568.801" width="60" height="12" rx="4" transform="rotate(117.578 590.141 568.801)" fill="black"/>
<rect x="515.07" y="651.092" width="60" height="12" rx="4" transform="rotate(169.599 515.07 651.092)" fill="black"/>
<rect x="524.343" y="653.031" width="98.3693" height="12" rx="4" transform="rotate(-102.451 524.343 653.031)" fill="black"/>
<rect x="453.21" y="656.246" width="60" height="12" rx="4" transform="rotate(-80.4267 453.21 656.246)" fill="black"/>
<rect x="765.231" y="162" width="169" height="155" rx="14" transform="rotate(49.1418 765.231 162)" fill="#B3FF00"/>
<path d="M771.796 296.673C771.44 296.753 770.285 297.555 768.333 299.08C766.416 300.607 764.167 302.488 761.584 304.721L738.522 324.914C735.865 327.212 733.118 328.705 730.279 329.394C727.44 330.083 724.695 329.972 722.042 329.061C719.406 328.169 717.027 326.497 714.907 324.046C712.641 321.426 711.261 318.809 710.766 316.195C710.272 313.581 710.82 311.586 712.41 310.21C713.402 309.353 714.516 308.977 715.754 309.084C716.975 309.173 717.982 309.675 718.775 310.592C719.471 311.397 719.933 312.29 720.16 313.271C720.371 314.233 720.431 315.457 720.341 316.941L719.972 325.307L718.136 320.517C718.841 321.673 719.598 322.359 720.407 322.576C721.197 322.808 722.281 322.492 723.659 321.627C725.018 320.779 726.896 319.319 729.291 317.247L754.109 295.682C755.644 294.355 757.079 293.064 758.415 291.811C759.786 290.559 760.926 289.475 761.834 288.559C762.758 287.661 763.3 287.078 763.46 286.809L760.474 281.541L763.904 278.869L779.441 296.832L776.302 299.841L771.796 296.673ZM756.635 347.273C755.065 345.458 753.585 343.254 752.194 340.663C750.803 338.072 749.866 335.627 749.384 333.33L758.659 324.767L762.578 328.787L757.771 336.673C757.957 337.985 758.384 339.349 759.053 340.765C759.722 342.182 760.526 343.433 761.465 344.518C763.1 346.408 764.731 347.499 766.358 347.792C768.02 348.088 769.525 347.653 770.872 346.488C772.313 345.242 773.102 343.791 773.24 342.134C773.377 340.478 773.148 338.681 772.551 336.744C771.971 334.825 771.31 332.813 770.568 330.707C769.842 328.62 769.303 326.502 768.95 324.355C768.613 322.226 768.756 320.122 769.38 318.045C770.004 315.968 771.402 313.991 773.572 312.114C775.874 310.123 778.461 309.03 781.334 308.835C784.226 308.623 787.178 309.275 790.19 310.791C793.218 312.326 796.1 314.675 798.835 317.837C800.114 319.315 801.353 321.089 802.554 323.157C803.755 325.226 804.603 327.077 805.099 328.709L796.372 337.68L792.502 333.716L797.13 326.132C796.846 325.2 796.465 324.286 795.986 323.392C795.523 322.517 794.912 321.639 794.151 320.76C792.727 319.113 791.081 318.1 789.215 317.719C787.367 317.322 785.666 317.795 784.113 319.139C782.729 320.336 781.976 321.773 781.854 323.448C781.733 325.123 781.96 326.954 782.535 328.943C783.11 330.931 783.75 332.995 784.455 335.133C785.194 337.274 785.748 339.427 786.118 341.594C786.487 343.76 786.396 345.867 785.844 347.914C785.293 349.962 783.997 351.867 781.957 353.631C779.768 355.525 777.23 356.543 774.344 356.684C771.476 356.81 768.503 356.077 765.426 354.486C762.365 352.914 759.435 350.51 756.635 347.273Z" fill="black"/>
<rect x="65.7296" y="362.617" width="180.21" height="155" rx="14" transform="rotate(-6.75515 65.7296 362.617)" fill="#FF9100"/>
<path d="M96.6127 458.152L92.3354 422.04L101.063 421.007L102.78 435.5L117.01 433.815L115.293 419.321L124.003 418.289L128.281 454.401L119.57 455.432L117.851 440.921L103.622 442.606L105.341 457.118L96.6127 458.152ZM129.136 424.869L128.297 417.781L158.818 414.165L159.658 421.254L148.708 422.551L152.146 451.574L143.541 452.593L140.104 423.57L129.136 424.869ZM163.081 413.661L173.89 412.38L185.707 433.652L186.13 433.602L192.651 410.158L203.459 408.878L207.737 444.989L199.238 445.996L196.61 423.814L196.311 423.85L190.236 446.83L184.805 447.473L173.515 426.425L173.215 426.46L175.857 448.765L167.358 449.772L163.081 413.661ZM213.181 444.344L208.903 408.233L217.631 407.199L221.069 436.222L236.092 434.443L236.932 441.531L213.181 444.344Z" fill="white"/>
<path d="M300.399 68.6951C311.22 68.8662 321.439 78.0639 328.963 94.0951C336.424 109.993 340.904 132.004 340.519 156.34C340.134 180.677 334.961 202.535 327.001 218.189C318.974 233.974 308.47 242.844 297.649 242.673C286.828 242.502 276.609 233.305 269.085 217.273C261.624 201.376 257.144 179.365 257.529 155.028C257.914 130.692 263.087 108.833 271.047 93.1796C279.074 77.3942 289.578 68.5241 300.399 68.6951Z" stroke="#0043C9" stroke-width="4"/>
<path d="M386.024 155.962C385.989 166.785 376.921 177.119 360.986 184.844C345.184 192.505 323.231 197.262 298.892 197.184C274.552 197.106 252.63 192.21 236.877 184.448C220.992 176.621 211.99 166.229 212.025 155.406C212.059 144.584 221.127 134.25 237.062 126.524C252.864 118.863 274.817 114.107 299.157 114.184C323.496 114.262 345.418 119.159 361.171 126.921C377.056 134.748 386.058 145.14 386.024 155.962Z" stroke="#0043C9" stroke-width="4"/>
<path d="M362.716 90.2931C370.639 97.6654 372.071 111.339 366.926 128.284C361.824 145.088 350.414 164.436 333.833 182.255C317.253 200.075 298.776 212.847 282.383 219.145C265.852 225.495 252.11 225.051 244.187 217.678C236.264 210.306 234.832 196.632 239.977 179.687C245.079 162.883 256.489 143.535 273.069 125.716C289.649 107.897 308.127 95.1244 324.52 88.8267C341.051 82.4762 354.793 82.9209 362.716 90.2931Z" stroke="#0043C9" stroke-width="4"/>
<path d="M237.005 97.8265C243.991 89.5608 257.581 87.4783 274.752 91.8091C291.78 96.104 311.65 106.578 330.24 122.29C348.829 138.001 362.469 155.848 369.541 171.923C376.673 188.132 376.884 201.879 369.898 210.145C362.912 218.411 349.322 220.493 332.151 216.162C315.123 211.867 295.252 201.393 276.663 185.681C258.073 169.97 244.434 152.123 237.362 136.049C230.23 119.839 230.019 106.092 237.005 97.8265Z" stroke="#0043C9" stroke-width="4"/>
<circle cx="298.749" cy="153.748" r="26.5" transform="rotate(19.2276 298.749 153.748)" fill="#0029DF"/>
<defs>
<filter id="filter0_d_14_31" x="656.502" y="37.9675" width="665.54" height="873.384" filterUnits="userSpaceOnUse" color-interpolation-filters="sRGB">
<feFlood flood-opacity="0" result="BackgroundImageFix"/>
<feColorMatrix in="SourceAlpha" type="matrix" values="0 0 0 0 0 0 0 0 0 0 0 0 0 0 0 0 0 0 127 0" result="hardAlpha"/>
<feMorphology radius="136" operator="dilate" in="SourceAlpha" result="effect1_dropShadow_14_31"/>
<feOffset dx="-93" dy="10"/>
<feGaussianBlur stdDeviation="33.35"/>
<feComposite in2="hardAlpha" operator="out"/>
<feColorMatrix type="matrix" values="0 0 0 0 0 0 0 0 0 0.316667 0 0 0 0 1 0 0 0 0.25 0"/>
<feBlend mode="normal" in2="BackgroundImageFix" result="effect1_dropShadow_14_31"/>
<feBlend mode="normal" in="SourceGraphic" in2="effect1_dropShadow_14_31" result="shape"/>
</filter>
</defs>
</svg>
