<svg width="21" height="35" viewBox="0 0 21 35" fill="none" xmlns="http://www.w3.org/2000/svg">
<ellipse cx="10.5" cy="11.053" rx="7.41177" ry="7.36842" fill="black"/>
<path d="M21 30.7015C21 34.771 18.6868 34.9998 10.5 34.9998C2.31319 34.9998 0 34.771 0 30.7015C0 26.632 2.31319 20.877 10.5 20.877C18.6868 20.877 21 26.632 21 30.7015Z" fill="black"/>
<path d="M17.2941 7.98246C17.2941 8.59649 13.57 3.68421 10.5 3.68421C7.42993 3.68421 4.32352 7.77175 4.32352 6.75439C4.32352 5.73702 10.5182 0 13.5882 0C16.6583 0 17.2941 6.96509 17.2941 7.98246Z" fill="#FFEE00"/>
<path d="M15.4505 11.3182C15.4131 11.9954 14.346 11.2579 12.9836 11.1837C11.6212 11.1094 10.4793 11.7264 10.5167 11.0491C10.5541 10.3719 11.7565 8.6569 13.1189 8.7312C14.4813 8.80549 15.4878 10.6409 15.4505 11.3182Z" fill="#F7FF00"/>
<path d="M9.27398 11.3182C9.23661 11.9954 8.16952 11.2579 6.8071 11.1837C5.44468 11.1094 4.30285 11.7264 4.34022 11.0491C4.37758 10.3719 5.57998 8.6569 6.94241 8.7312C8.30483 8.80549 9.31134 10.6409 9.27398 11.3182Z" fill="#F7FF00"/>
</svg>
