<svg width="35" height="35" viewBox="0 0 35 35" fill="none" xmlns="http://www.w3.org/2000/svg">
<rect x="3" y="4" width="23" height="14" rx="1" fill="#00EAFF"/>
<rect x="5" y="9" width="14" height="1" rx="0.5" fill="white"/>
<rect x="5" y="11" width="14" height="1" rx="0.5" fill="white"/>
<rect x="5" y="7" width="14" height="1" rx="0.5" fill="white"/>
<rect x="5" y="9" width="14" height="1" rx="0.5" fill="white"/>
<rect x="19" width="11" height="18" rx="1" fill="#E1FF00"/>
<rect y="16" width="35" height="19" rx="4" fill="black"/>
<rect x="9" y="8" width="23" height="11" rx="1" fill="#D90000"/>
<rect x="6" y="22" width="14" height="1" rx="0.5" fill="white"/>
<rect x="6" y="25" width="14" height="1" rx="0.5" fill="white"/>
<rect x="6" y="28" width="14" height="1" rx="0.5" fill="white"/>
<rect x="22" y="2" width="5" height="1" rx="0.5" fill="white"/>
<rect x="22" y="4" width="5" height="1" rx="0.5" fill="white"/>
<rect x="22" y="6" width="5" height="1" rx="0.5" fill="white"/>
<rect x="14" y="11" width="14" height="1" rx="0.5" fill="white"/>
<rect x="14" y="13" width="14" height="1" rx="0.5" fill="white"/>
<rect x="14" y="15" width="14" height="1" rx="0.5" fill="white"/>
</svg>
